<svg width="30" height="30" viewBox="0 0 30 30" fill="none" xmlns="http://www.w3.org/2000/svg">
<g clip-path="url(#clip0_15_21)">
<path d="M6.16877 1.53943e-05C5.35816 -0.00179748 4.55519 0.156525 3.80594 0.465891C3.0567 0.775258 2.37594 1.22958 1.80276 1.80276C1.22958 2.37594 0.775258 3.0567 0.465891 3.80594C0.156525 4.55519 -0.00179748 5.35816 1.53943e-05 6.16877V23.8313C-0.00179748 24.6419 0.156525 25.4448 0.465891 26.1941C0.775258 26.9433 1.22958 27.6241 1.80276 28.1973C2.37594 28.7705 3.0567 29.2248 3.80594 29.5341C4.55519 29.8435 5.35816 30.0018 6.16877 30H23.8313C24.6419 30.0018 25.4448 29.8435 26.1941 29.5341C26.9433 29.2248 27.6241 28.7705 28.1973 28.1973C28.7705 27.6241 29.2248 26.9433 29.5341 26.1941C29.8435 25.4448 30.0018 24.6419 30 23.8313V6.16877C30.0018 5.35816 29.8435 4.55519 29.5341 3.80594C29.2248 3.0567 28.7705 2.37594 28.1973 1.80276C27.6241 1.22958 26.9433 0.775258 26.1941 0.465891C25.4448 0.156525 24.6419 -0.00179748 23.8313 1.53943e-05H6.16877ZM15.9313 5.68377C18.6575 5.68377 21.0038 6.52877 22.68 7.99252C23.5153 8.71489 24.1843 9.60961 24.6409 10.6151C25.0975 11.6207 25.3309 12.7132 25.325 13.8175C25.3313 16.135 24.225 18.1625 22.5038 19.5213C20.785 20.8863 18.4725 21.6425 15.9313 21.6425C13.0388 21.6425 10.3563 20.59 10.3563 20.59V23.9875C10.8525 24.1325 11.6663 24.4438 11.15 24.9613H7.23752C6.72502 24.4488 7.47502 24.1488 8.04252 23.9875V9.58252C6.72627 10.595 6.05127 11.47 5.70752 12.1213C6.10752 13.3963 5.35252 13.3325 5.35252 13.3325L3.99002 11.17C3.99002 11.17 8.82502 5.68377 15.9313 5.68377ZM15.6938 6.89752C13.915 6.89377 11.7138 7.48877 10.3563 8.45252V19.26C11.5913 19.8688 13.4613 20.3 15.6813 20.3H15.6938C17.6888 20.3 19.4188 19.5588 20.6063 18.3838C21.7963 17.1988 22.4638 15.655 22.4713 13.78C22.465 11.855 21.8413 10.2 20.6963 8.95502C19.5488 7.71502 17.8538 6.89877 15.6938 6.89752Z" fill="black"/>
</g>
<defs>
<clipPath id="clip0_15_21">
<rect width="30" height="30" fill="white"/>
</clipPath>
</defs>
</svg>
